<svg xmlns="http://www.w3.org/2000/svg" xmlns:xlink="http://www.w3.org/1999/xlink" width="150" zoomAndPan="magnify" viewBox="0 0 112.5 66.749998" height="89" preserveAspectRatio="xMidYMid meet" version="1.0"><defs><clipPath id="cf5a383c0f"><path d="M 0 0.0234375 L 112 0.0234375 L 112 66.476562 L 0 66.476562 Z M 0 0.0234375 " clip-rule="nonzero"/></clipPath><clipPath id="9ace9ce93a"><path d="M 0 0.0234375 L 112 0.0234375 L 112 66.476562 L 0 66.476562 Z M 0 0.0234375 " clip-rule="nonzero"/></clipPath></defs><g clip-path="url(#cf5a383c0f)"><path fill="#000a44" d="M 111.695312 38.296875 C 111.902344 38.167969 111.988281 37.980469 111.953125 37.738281 C 111.917969 37.496094 111.785156 37.339844 111.546875 37.277344 C 109.894531 36.925781 108.117188 34.851562 107.164062 33.53125 C 105.882812 31.761719 105.042969 29.714844 104.382812 27.636719 C 103.652344 25.453125 103.179688 23.210938 102.957031 20.917969 C 102.855469 19.746094 102.8125 18.566406 102.769531 17.394531 C 102.722656 16.023438 102.492188 14.488281 103.050781 13.199219 C 103.171875 12.980469 103.15625 12.773438 103 12.574219 C 102.847656 12.378906 102.648438 12.3125 102.410156 12.382812 C 101.132812 12.738281 99.835938 12.960938 98.515625 13.054688 C 97.195312 13.148438 95.878906 13.109375 94.566406 12.9375 C 93.253906 12.765625 91.96875 12.464844 90.71875 12.035156 C 89.464844 11.601562 88.269531 11.050781 87.125 10.378906 C 84.972656 9.128906 82.972656 7.664062 81.125 5.992188 C 80.167969 5.152344 79.421875 4.15625 78.886719 3 C 78.453125 2.027344 78.117188 1.089844 77.398438 0.285156 C 77.289062 0.175781 77.15625 0.121094 77.003906 0.121094 C 76.851562 0.121094 76.71875 0.175781 76.609375 0.285156 C 74.574219 2.097656 72.988281 4.269531 70.558594 5.589844 C 67.863281 7.097656 64.984375 8.050781 61.921875 8.445312 C 59.179688 8.769531 56.480469 8.542969 53.828125 7.773438 C 52.378906 7.382812 51.09375 6.6875 49.964844 5.691406 C 49.011719 4.808594 48.300781 3.683594 47.445312 2.699219 C 47.335938 2.589844 47.203125 2.535156 47.050781 2.535156 C 46.894531 2.535156 46.765625 2.589844 46.65625 2.699219 C 44.988281 4.542969 43.660156 6.496094 41.511719 7.832031 C 39.375 9.144531 37.058594 9.910156 34.5625 10.128906 C 29.289062 10.628906 25.042969 8.308594 20.511719 5.9375 C 20.4375 5.894531 20.355469 5.871094 20.269531 5.867188 C 20.183594 5.863281 20.101562 5.875 20.019531 5.910156 C 19.941406 5.945312 19.871094 5.996094 19.816406 6.058594 C 19.757812 6.125 19.71875 6.199219 19.699219 6.285156 C 19.023438 8.433594 18.6875 10.652344 17.457031 12.585938 C 16.246094 14.425781 14.742188 15.972656 12.9375 17.226562 C 11.195312 18.515625 9.304688 19.515625 7.265625 20.222656 C 6.082031 20.625 4.871094 20.847656 3.625 20.898438 C 2.582031 20.929688 1.582031 20.859375 0.558594 21.109375 C 0 21.25 0.0742188 22.039062 0.574219 22.191406 C 2.816406 22.878906 4.816406 25.652344 5.679688 27.707031 C 6.683594 30.183594 7.097656 32.753906 6.929688 35.421875 C 6.601562 40.773438 3.070312 45.152344 0.765625 49.773438 C 0.660156 49.960938 0.660156 50.152344 0.769531 50.339844 C 0.878906 50.527344 1.042969 50.621094 1.261719 50.617188 C 2.503906 50.6875 3.519531 50.488281 4.738281 50.898438 C 5.640625 51.214844 6.511719 51.597656 7.355469 52.050781 C 9.121094 52.988281 10.753906 54.128906 11.984375 55.734375 C 14.25 58.699219 14.964844 62.496094 16.019531 65.996094 C 16.046875 66.089844 16.097656 66.175781 16.167969 66.242188 C 16.242188 66.3125 16.324219 66.359375 16.421875 66.382812 C 16.515625 66.40625 16.613281 66.40625 16.707031 66.378906 C 16.804688 66.351562 16.886719 66.304688 16.957031 66.234375 C 20.546875 62.640625 24.496094 58.796875 29.542969 57.480469 C 32.238281 56.773438 34.664062 57.136719 37 58.675781 C 39.097656 60.054688 40.796875 61.972656 42.390625 63.886719 C 42.738281 64.300781 43.300781 63.90625 43.339844 63.476562 C 43.757812 58.648438 48.300781 56.117188 52.746094 56.03125 C 54.898438 55.953125 56.90625 56.457031 58.769531 57.535156 C 61.230469 59.03125 62.878906 61.621094 64.371094 64.0625 C 64.269531 64.207031 64.257812 64.355469 64.339844 64.511719 C 64.25 64.761719 64.304688 64.972656 64.503906 65.148438 C 64.703125 65.320312 64.917969 65.347656 65.152344 65.222656 L 65.582031 64.984375 C 65.769531 64.875 65.863281 64.714844 65.863281 64.496094 C 67.210938 63.859375 68.257812 62.449219 69.261719 61.457031 C 71.160156 59.574219 73.769531 58.535156 76.359375 58.050781 C 79.15625 57.527344 81.953125 57.527344 84.75 58.050781 C 86.183594 58.339844 87.574219 58.785156 88.910156 59.386719 C 89.992188 59.867188 91.617188 60.203125 92.109375 61.386719 C 92.167969 61.511719 92.261719 61.605469 92.386719 61.664062 C 92.515625 61.722656 92.644531 61.730469 92.777344 61.691406 C 92.910156 61.652344 93.015625 61.574219 93.089844 61.457031 C 93.167969 61.339844 93.195312 61.210938 93.175781 61.074219 C 92.671875 58.484375 94.015625 55.207031 94.972656 52.816406 C 96.023438 50.148438 97.484375 47.730469 99.351562 45.558594 C 100.929688 43.671875 102.78125 42.109375 104.898438 40.871094 C 107.035156 39.628906 109.527344 39.457031 111.695312 38.296875 Z M 111.695312 38.296875 " fill-opacity="1" fill-rule="nonzero"/></g><path fill="#fff1e1" d="M 109.957031 37.835938 C 108.953125 38.195312 107.90625 38.414062 106.875 38.738281 C 105.691406 39.132812 104.578125 39.671875 103.53125 40.355469 C 101.265625 41.839844 99.3125 43.65625 97.667969 45.816406 C 95.980469 47.996094 94.660156 50.378906 93.714844 52.972656 C 92.960938 54.988281 92.0625 57.332031 91.976562 59.585938 C 91.726562 59.414062 91.464844 59.269531 91.191406 59.144531 C 89.9375 58.582031 88.667969 58.019531 87.367188 57.585938 C 84.511719 56.621094 81.433594 56.417969 78.445312 56.652344 C 75.644531 56.878906 72.84375 57.621094 70.449219 59.136719 C 69.441406 59.8125 68.546875 60.609375 67.757812 61.53125 C 67.082031 62.265625 66.359375 63.167969 65.433594 63.640625 C 63.789062 60.949219 61.960938 58.09375 59.207031 56.476562 C 57.097656 55.238281 54.550781 54.765625 52.128906 54.925781 C 47.625 55.207031 43.460938 57.761719 42.4375 62.195312 C 39.21875 58.488281 35.304688 55.15625 30.078125 56.195312 C 24.792969 57.242188 20.578125 61.0625 16.839844 64.769531 C 15.800781 61.167969 14.914062 57.410156 12.4375 54.5 C 11.101562 52.925781 9.355469 51.785156 7.527344 50.867188 C 6.605469 50.386719 5.644531 49.992188 4.648438 49.683594 C 3.808594 49.433594 3 49.484375 2.167969 49.496094 C 4.738281 44.574219 8.25 39.882812 8.050781 34.066406 C 7.953125 31.332031 7.449219 28.523438 6.136719 26.105469 C 5.257812 24.472656 4.074219 23.101562 2.59375 21.992188 C 3.429688 22.007812 4.261719 21.96875 5.089844 21.882812 C 6.253906 21.710938 7.382812 21.40625 8.476562 20.96875 C 10.554688 20.136719 12.476562 19.027344 14.238281 17.648438 C 15.898438 16.390625 17.300781 14.886719 18.441406 13.140625 C 19.597656 11.328125 20.003906 9.265625 20.589844 7.226562 C 25.21875 9.648438 29.628906 11.832031 35.042969 11.195312 C 37.414062 10.929688 39.636719 10.207031 41.707031 9.019531 C 43.949219 7.710938 45.390625 5.832031 47.050781 3.949219 C 47.835938 4.925781 48.558594 5.976562 49.519531 6.785156 C 50.539062 7.613281 51.671875 8.238281 52.914062 8.652344 C 55.855469 9.628906 58.863281 9.933594 61.9375 9.558594 C 64.9375 9.1875 67.78125 8.300781 70.46875 6.902344 C 73.101562 5.5625 74.824219 3.445312 76.941406 1.503906 C 77.585938 2.449219 77.851562 3.628906 78.460938 4.601562 C 79.117188 5.597656 79.90625 6.472656 80.828125 7.222656 C 82.851562 8.988281 85.039062 10.515625 87.390625 11.804688 C 89.589844 12.976562 91.921875 13.722656 94.390625 14.050781 C 96.855469 14.378906 99.304688 14.261719 101.730469 13.707031 C 101.226562 15.824219 101.640625 18.367188 101.789062 20.425781 C 102.011719 23.144531 102.566406 25.796875 103.449219 28.375 C 104.203125 30.644531 105.1875 32.882812 106.695312 34.742188 C 107.523438 35.769531 108.683594 37.089844 109.957031 37.835938 Z M 109.957031 37.835938 " fill-opacity="1" fill-rule="nonzero"/><g clip-path="url(#9ace9ce93a)"><path fill="#000a44" d="M 111.546875 37.277344 C 109.894531 36.925781 108.117188 34.851562 107.164062 33.53125 C 105.882812 31.761719 105.042969 29.714844 104.382812 27.636719 C 103.652344 25.453125 103.179688 23.210938 102.957031 20.917969 C 102.855469 19.746094 102.8125 18.566406 102.769531 17.394531 C 102.722656 16.023438 102.492188 14.488281 103.050781 13.199219 C 103.171875 12.980469 103.15625 12.773438 103 12.574219 C 102.847656 12.378906 102.648438 12.3125 102.410156 12.382812 C 101.132812 12.738281 99.835938 12.960938 98.515625 13.054688 C 97.195312 13.148438 95.878906 13.109375 94.566406 12.9375 C 93.253906 12.765625 91.96875 12.464844 90.71875 12.035156 C 89.464844 11.601562 88.269531 11.050781 87.125 10.378906 C 84.972656 9.128906 82.972656 7.664062 81.125 5.992188 C 80.167969 5.152344 79.421875 4.15625 78.886719 3 C 78.453125 2.027344 78.117188 1.089844 77.398438 0.285156 C 77.289062 0.175781 77.15625 0.121094 77.003906 0.121094 C 76.851562 0.121094 76.71875 0.175781 76.609375 0.285156 C 74.574219 2.097656 72.988281 4.269531 70.558594 5.589844 C 67.863281 7.097656 64.984375 8.050781 61.921875 8.445312 C 59.179688 8.769531 56.480469 8.542969 53.828125 7.773438 C 52.378906 7.382812 51.09375 6.6875 49.964844 5.691406 C 49.011719 4.808594 48.300781 3.683594 47.445312 2.699219 C 47.335938 2.589844 47.203125 2.535156 47.050781 2.535156 C 46.894531 2.535156 46.765625 2.589844 46.65625 2.699219 C 44.988281 4.542969 43.660156 6.496094 41.511719 7.832031 C 39.375 9.144531 37.058594 9.910156 34.5625 10.128906 C 29.289062 10.628906 25.042969 8.308594 20.511719 5.9375 C 20.4375 5.894531 20.355469 5.871094 20.269531 5.867188 C 20.183594 5.863281 20.101562 5.875 20.019531 5.910156 C 19.941406 5.945312 19.871094 5.996094 19.816406 6.058594 C 19.757812 6.125 19.71875 6.199219 19.699219 6.285156 C 19.023438 8.433594 18.6875 10.652344 17.457031 12.585938 C 16.246094 14.425781 14.742188 15.972656 12.9375 17.226562 C 11.195312 18.515625 9.304688 19.515625 7.265625 20.222656 C 6.082031 20.625 4.871094 20.847656 3.625 20.898438 C 2.582031 20.929688 1.582031 20.859375 0.558594 21.109375 C 0 21.25 0.0742188 22.039062 0.574219 22.191406 C 2.816406 22.878906 4.816406 25.652344 5.679688 27.707031 C 6.683594 30.183594 7.097656 32.753906 6.929688 35.421875 C 6.601562 40.773438 3.070312 45.152344 0.765625 49.773438 C 0.660156 49.960938 0.660156 50.152344 0.769531 50.339844 C 0.878906 50.527344 1.042969 50.621094 1.261719 50.617188 C 2.503906 50.6875 3.519531 50.488281 4.738281 50.898438 C 5.640625 51.214844 6.511719 51.597656 7.355469 52.050781 C 9.121094 52.988281 10.753906 54.128906 11.984375 55.734375 C 14.25 58.699219 14.964844 62.496094 16.019531 65.996094 C 16.046875 66.089844 16.097656 66.175781 16.167969 66.242188 C 16.242188 66.3125 16.324219 66.359375 16.421875 66.382812 C 16.515625 66.40625 16.613281 66.40625 16.707031 66.378906 C 16.804688 66.351562 16.886719 66.304688 16.957031 66.234375 C 20.546875 62.640625 24.496094 58.796875 29.542969 57.480469 C 32.238281 56.773438 34.664062 57.136719 37 58.675781 C 39.097656 60.054688 40.796875 61.972656 42.390625 63.886719 C 42.738281 64.300781 43.300781 63.90625 43.339844 63.476562 C 43.757812 58.648438 48.300781 56.117188 52.746094 56.03125 C 54.898438 55.953125 56.90625 56.457031 58.769531 57.535156 C 61.230469 59.03125 62.878906 61.621094 64.371094 64.0625 C 64.269531 64.207031 64.257812 64.355469 64.339844 64.511719 C 64.25 64.761719 64.304688 64.972656 64.503906 65.148438 C 64.703125 65.320312 64.917969 65.347656 65.152344 65.222656 L 65.582031 64.984375 C 65.769531 64.875 65.863281 64.714844 65.863281 64.496094 C 67.210938 63.859375 68.257812 62.449219 69.261719 61.457031 C 71.160156 59.574219 73.769531 58.535156 76.359375 58.050781 C 79.15625 57.527344 81.953125 57.527344 84.75 58.050781 C 86.183594 58.339844 87.574219 58.785156 88.910156 59.386719 C 89.992188 59.867188 91.617188 60.203125 92.109375 61.386719 C 92.167969 61.511719 92.261719 61.605469 92.386719 61.664062 C 92.515625 61.722656 92.644531 61.730469 92.777344 61.691406 C 92.910156 61.652344 93.015625 61.574219 93.089844 61.457031 C 93.167969 61.339844 93.195312 61.210938 93.175781 61.074219 C 92.671875 58.484375 94.015625 55.207031 94.972656 52.816406 C 96.023438 50.148438 97.484375 47.730469 99.351562 45.558594 C 100.929688 43.671875 102.78125 42.109375 104.898438 40.871094 C 107.046875 39.640625 109.539062 39.460938 111.707031 38.308594 C 111.921875 38.179688 112.011719 37.988281 111.972656 37.738281 C 111.9375 37.488281 111.792969 37.332031 111.546875 37.277344 Z M 106.890625 38.738281 C 105.707031 39.132812 104.589844 39.671875 103.542969 40.355469 C 101.277344 41.839844 99.324219 43.65625 97.683594 45.816406 C 95.988281 47.992188 94.667969 50.378906 93.714844 52.972656 C 92.960938 54.988281 92.0625 57.332031 91.976562 59.585938 C 91.726562 59.414062 91.464844 59.269531 91.191406 59.144531 C 89.9375 58.582031 88.667969 58.019531 87.367188 57.585938 C 84.511719 56.621094 81.433594 56.417969 78.445312 56.652344 C 75.644531 56.878906 72.84375 57.621094 70.449219 59.136719 C 69.441406 59.8125 68.546875 60.609375 67.757812 61.53125 C 67.082031 62.265625 66.359375 63.167969 65.433594 63.640625 C 63.789062 60.949219 61.960938 58.09375 59.207031 56.476562 C 57.097656 55.238281 54.550781 54.765625 52.128906 54.925781 C 47.625 55.207031 43.460938 57.761719 42.4375 62.195312 C 39.21875 58.488281 35.304688 55.15625 30.078125 56.195312 C 24.792969 57.242188 20.578125 61.0625 16.839844 64.769531 C 15.800781 61.167969 14.914062 57.410156 12.4375 54.5 C 11.101562 52.925781 9.355469 51.785156 7.527344 50.867188 C 6.605469 50.386719 5.644531 49.992188 4.648438 49.683594 C 3.808594 49.433594 3 49.484375 2.167969 49.496094 C 4.738281 44.574219 8.25 39.882812 8.050781 34.066406 C 7.953125 31.332031 7.449219 28.523438 6.136719 26.105469 C 5.257812 24.472656 4.074219 23.101562 2.59375 21.992188 C 3.429688 22.007812 4.261719 21.96875 5.089844 21.882812 C 6.253906 21.710938 7.382812 21.40625 8.476562 20.96875 C 10.554688 20.136719 12.476562 19.027344 14.238281 17.648438 C 15.898438 16.390625 17.300781 14.886719 18.441406 13.140625 C 19.597656 11.328125 20.003906 9.265625 20.589844 7.226562 C 25.21875 9.648438 29.628906 11.832031 35.042969 11.195312 C 37.414062 10.929688 39.636719 10.207031 41.707031 9.019531 C 43.949219 7.710938 45.390625 5.832031 47.050781 3.949219 C 47.835938 4.925781 48.558594 5.976562 49.519531 6.785156 C 50.539062 7.613281 51.671875 8.238281 52.914062 8.652344 C 55.855469 9.628906 58.863281 9.933594 61.9375 9.558594 C 64.9375 9.1875 67.78125 8.300781 70.46875 6.902344 C 73.101562 5.5625 74.824219 3.445312 76.941406 1.503906 C 77.585938 2.449219 77.851562 3.628906 78.460938 4.601562 C 79.117188 5.597656 79.90625 6.472656 80.828125 7.222656 C 82.851562 8.988281 85.039062 10.515625 87.390625 11.804688 C 89.589844 12.976562 91.921875 13.722656 94.390625 14.050781 C 96.855469 14.378906 99.304688 14.261719 101.730469 13.707031 C 101.226562 15.824219 101.640625 18.367188 101.789062 20.425781 C 102.011719 23.144531 102.566406 25.796875 103.449219 28.375 C 104.203125 30.644531 105.1875 32.882812 106.695312 34.742188 C 107.535156 35.769531 108.683594 37.089844 109.964844 37.839844 C 108.964844 38.195312 107.914062 38.414062 106.890625 38.738281 Z M 106.890625 38.738281 " fill-opacity="1" fill-rule="nonzero"/></g><path fill="#000a44" d="M 90.144531 34.742188 C 89.964844 34.730469 89.785156 34.730469 89.605469 34.742188 C 88.535156 34.8125 87.460938 34.886719 86.390625 34.957031 L 85.488281 35.011719 C 86.230469 34.074219 86.859375 33.257812 87.507812 32.476562 C 88.5625 31.1875 89.621094 29.902344 90.6875 28.625 C 91.089844 28.132812 91.34375 27.570312 91.445312 26.9375 C 91.695312 25.355469 91.835938 23.761719 91.863281 22.160156 C 91.875 21.980469 91.863281 21.800781 91.835938 21.625 C 91.757812 21.164062 91.558594 21.03125 91.09375 21.058594 C 90.851562 21.085938 90.605469 21.09375 90.359375 21.089844 C 88.253906 20.996094 86.15625 20.871094 84.046875 20.808594 C 81.628906 20.726562 79.214844 20.667969 76.796875 20.625 C 75.773438 20.609375 74.792969 20.777344 73.996094 21.507812 C 73.851562 21.613281 73.699219 21.703125 73.539062 21.773438 C 73.210938 20.714844 72.933594 20.503906 71.84375 20.484375 C 71.53125 20.484375 71.21875 20.484375 70.902344 20.484375 C 69.605469 20.527344 68.308594 20.59375 67.011719 20.617188 C 66.136719 20.605469 65.394531 20.914062 64.785156 21.546875 C 64.539062 21.804688 64.289062 22.054688 64.039062 22.304688 L 63.894531 22.25 C 63.859375 21.738281 63.835938 21.222656 63.785156 20.710938 C 63.734375 20.199219 63.585938 20.0625 63.125 20.003906 C 62.726562 19.9375 62.324219 19.921875 61.921875 19.957031 C 60.304688 20.183594 58.691406 20.445312 57.078125 20.710938 C 56.84375 20.742188 56.648438 20.84375 56.492188 21.019531 C 56.332031 21.191406 56.246094 21.398438 56.238281 21.636719 C 56.109375 23.183594 55.988281 24.730469 55.878906 26.28125 C 55.769531 27.738281 55.714844 29.203125 55.570312 30.660156 C 55.460938 31.578125 55.304688 32.484375 55.101562 33.386719 C 55.03125 33.835938 54.832031 34.210938 54.496094 34.511719 C 54.015625 34.167969 53.699219 33.710938 53.542969 33.140625 C 53.304688 32.34375 53.140625 31.53125 53.050781 30.703125 C 52.976562 29.398438 52.976562 28.09375 53.050781 26.789062 C 53.140625 25.21875 53.332031 23.648438 53.503906 22.085938 C 53.59375 21.289062 53.429688 21 52.640625 20.910156 C 52.019531 20.835938 51.390625 20.769531 50.765625 20.75 C 49.367188 20.703125 47.945312 20.640625 46.539062 20.671875 C 46.132812 20.683594 45.75 20.785156 45.390625 20.972656 C 45.03125 21.164062 44.730469 21.425781 44.488281 21.753906 C 43.953125 22.445312 43.398438 23.125 42.855469 23.816406 C 42.746094 23.949219 42.660156 24.097656 42.574219 24.242188 C 42.421875 24.101562 42.371094 24.0625 42.324219 24.011719 C 39.84375 21.171875 36.578125 20.183594 33.03125 19.84375 C 31.476562 19.695312 29.972656 20.191406 28.445312 20.375 C 27.007812 20.550781 25.644531 21.152344 24.296875 21.695312 C 23.085938 22.179688 22.003906 22.871094 21.050781 23.765625 C 20.097656 24.664062 19.339844 25.703125 18.777344 26.886719 C 17.988281 28.402344 17.441406 30.007812 17.136719 31.691406 C 16.832031 33.378906 16.785156 35.074219 16.992188 36.773438 C 17.445312 40.457031 19.046875 43.457031 22.3125 45.386719 C 24.359375 46.589844 26.539062 47.359375 28.941406 47.261719 C 30.019531 47.226562 31.089844 47.132812 32.152344 46.980469 C 32.921875 46.832031 33.609375 47.003906 34.21875 47.503906 C 35.21875 48.292969 36.339844 48.839844 37.578125 49.144531 C 39.101562 49.503906 40.617188 49.644531 42.15625 49.199219 C 42.894531 48.988281 43.34375 48.570312 43.429688 47.816406 C 43.523438 46.988281 43.605469 46.160156 43.621094 45.328125 C 43.644531 44.203125 43.960938 43.164062 44.167969 42.03125 C 44.261719 42.09375 44.347656 42.15625 44.429688 42.230469 C 45.4375 43.328125 46.710938 43.949219 48.109375 44.363281 C 51.515625 45.375 54.890625 45.179688 58.210938 44.023438 C 59.609375 43.535156 60.886719 42.753906 61.769531 41.488281 C 61.8125 41.429688 61.902344 41.40625 61.984375 41.355469 C 62.109375 42.222656 62.210938 43.042969 62.351562 43.867188 C 62.496094 44.730469 62.976562 45.324219 63.863281 45.453125 C 64.613281 45.566406 65.375 45.605469 66.132812 45.65625 C 67.394531 45.738281 68.589844 45.535156 69.644531 44.773438 C 69.675781 44.746094 69.730469 44.757812 69.8125 44.746094 C 69.894531 45.160156 69.972656 45.574219 70.0625 45.988281 C 70.109375 46.25 70.226562 46.476562 70.410156 46.671875 C 70.597656 46.863281 70.820312 46.984375 71.082031 47.039062 C 71.382812 47.125 71.691406 47.175781 72.003906 47.195312 C 72.632812 47.226562 73.257812 47.226562 73.886719 47.230469 C 76.171875 47.230469 78.457031 47.25 80.738281 47.230469 C 82.308594 47.230469 83.878906 47.1875 85.441406 47.140625 C 86.382812 47.125 87.195312 46.785156 87.871094 46.128906 C 88.796875 45.242188 89.726562 44.359375 90.597656 43.417969 C 91.089844 42.882812 91.539062 42.277344 91.515625 41.445312 C 91.464844 39.625 91.449219 37.800781 91.375 35.976562 C 91.34375 35.035156 91.070312 34.804688 90.144531 34.742188 Z M 73.339844 30.433594 L 74.515625 30.359375 C 74.082031 30.941406 73.746094 31.394531 73.414062 31.851562 L 73.273438 31.804688 C 73.289062 31.371094 73.3125 30.9375 73.335938 30.433594 Z M 66.628906 21.816406 C 66.738281 21.773438 66.847656 21.742188 66.960938 21.71875 C 68.433594 21.648438 69.910156 21.574219 71.386719 21.519531 C 71.714844 21.527344 72.046875 21.550781 72.375 21.59375 C 72.339844 28.277344 72.113281 34.832031 71.746094 41.472656 C 70.09375 41.53125 68.453125 41.457031 66.816406 41.242188 C 66.546875 34.726562 66.109375 28.269531 66.628906 21.816406 Z M 41.199219 48.292969 C 39.363281 48.574219 37.636719 48.261719 36.019531 47.347656 C 35.523438 47.082031 35.058594 46.777344 34.617188 46.433594 C 33.945312 45.90625 33.1875 45.710938 32.347656 45.855469 C 31.460938 45.980469 30.566406 46.027344 29.675781 46.136719 C 27.109375 46.417969 24.816406 45.644531 22.671875 44.3125 C 19.871094 42.59375 18.550781 39.957031 18.109375 36.804688 C 17.6875 33.761719 18.234375 30.84375 19.449219 28.039062 C 19.996094 26.792969 20.746094 25.675781 21.6875 24.695312 C 22.5625 23.820312 23.582031 23.183594 24.753906 22.792969 C 23.710938 23.859375 22.8125 25.035156 22.058594 26.320312 C 20.339844 29.308594 20.035156 32.519531 20.632812 35.859375 C 20.753906 36.464844 20.957031 37.039062 21.234375 37.589844 C 23.164062 41.53125 26.359375 43.730469 30.695312 44.253906 C 31.882812 44.394531 33.058594 44.140625 34.214844 43.847656 C 34.40625 43.796875 34.597656 43.734375 34.773438 43.679688 C 35.425781 44.222656 36.046875 44.773438 36.703125 45.273438 C 37.199219 45.65625 37.71875 46.003906 38.257812 46.320312 C 39.28125 46.886719 40.363281 47.058594 41.511719 46.839844 L 42.402344 46.703125 C 42.449219 46.800781 42.484375 46.839844 42.480469 46.878906 C 42.363281 48.050781 42.363281 48.078125 41.199219 48.273438 Z M 42.378906 45.554688 C 41.242188 45.863281 40.121094 46.023438 38.992188 45.488281 C 37.78125 44.871094 36.710938 44.066406 35.78125 43.070312 C 35.589844 42.84375 35.355469 42.699219 35.070312 42.628906 C 34.78125 42.5625 34.503906 42.589844 34.238281 42.707031 C 32.960938 43.160156 31.65625 43.300781 30.316406 43.132812 C 25.699219 42.433594 22.609375 39.277344 21.699219 35.617188 C 21.40625 34.402344 21.308594 33.167969 21.410156 31.921875 C 21.511719 30.675781 21.804688 29.476562 22.292969 28.324219 C 23.339844 25.738281 25.019531 23.671875 27.335938 22.128906 C 27.863281 21.722656 28.457031 21.492188 29.117188 21.433594 C 29.828125 21.355469 30.53125 21.226562 31.226562 21.042969 C 32.386719 20.808594 33.542969 20.832031 34.691406 21.113281 C 35.738281 21.363281 36.765625 21.675781 37.773438 22.046875 C 39.183594 22.582031 40.390625 23.421875 41.390625 24.558594 C 42.371094 25.628906 42.992188 26.882812 43.257812 28.3125 C 43.648438 30.394531 43.746094 32.464844 43.257812 34.546875 C 42.925781 35.929688 42.417969 37.203125 41.335938 38.183594 C 41.199219 38.304688 41.089844 38.445312 41.007812 38.605469 C 40.929688 38.714844 40.90625 38.832031 40.929688 38.960938 C 40.953125 39.09375 41.023438 39.195312 41.132812 39.265625 C 41.484375 39.550781 41.882812 39.738281 42.324219 39.832031 C 42.679688 39.871094 43.023438 39.960938 43.464844 40.050781 C 43.085938 41.914062 42.738281 43.699219 42.378906 45.539062 Z M 57.929688 42.988281 C 54.726562 44.085938 51.488281 44.304688 48.234375 43.253906 C 47.476562 42.980469 46.75 42.636719 46.0625 42.222656 C 45.355469 41.820312 44.941406 41.140625 44.59375 40.425781 C 44.550781 40.296875 44.539062 40.167969 44.546875 40.03125 C 44.527344 39.296875 44.339844 39.085938 43.617188 38.972656 C 43.28125 38.921875 42.957031 38.859375 42.625 38.800781 C 42.566406 38.78125 42.511719 38.75 42.460938 38.714844 C 42.460938 38.65625 42.460938 38.597656 42.476562 38.570312 C 43.875 37.023438 44.308594 35.105469 44.574219 33.117188 C 44.78125 31.261719 44.652344 29.433594 44.179688 27.625 C 43.976562 26.761719 43.582031 25.9375 43.242188 25.015625 L 45.183594 22.59375 C 45.21875 22.789062 45.242188 22.984375 45.257812 23.179688 C 45.257812 26.15625 45.257812 29.128906 45.257812 32.101562 C 45.25 33.691406 45.476562 35.242188 45.9375 36.761719 C 46.15625 37.472656 46.445312 38.152344 46.804688 38.804688 C 47.976562 40.96875 49.898438 42.09375 52.261719 42.566406 C 54.667969 43.070312 57.027344 42.894531 59.335938 42.046875 C 59.414062 42.019531 59.5 42 59.730469 41.9375 C 59.195312 42.394531 58.59375 42.738281 57.929688 42.96875 Z M 62.285156 37.105469 C 61.988281 39.019531 60.839844 40.253906 59.105469 40.980469 C 57.519531 41.628906 55.875 41.878906 54.167969 41.730469 C 53.230469 41.648438 52.308594 41.476562 51.40625 41.21875 C 49.164062 40.613281 47.863281 39.027344 47.109375 36.925781 C 46.621094 35.558594 46.367188 34.152344 46.351562 32.703125 C 46.324219 30.761719 46.351562 28.824219 46.351562 26.890625 C 46.351562 25.335938 46.332031 23.792969 46.324219 22.226562 L 46.324219 21.757812 C 48.390625 21.503906 50.34375 21.796875 52.375 21.941406 C 52.3125 22.605469 52.242188 23.222656 52.1875 23.835938 C 51.996094 26.015625 51.777344 28.1875 51.929688 30.378906 C 51.992188 31.394531 52.179688 32.386719 52.492188 33.359375 C 52.71875 34.054688 53.09375 34.660156 53.613281 35.175781 C 54.242188 35.800781 54.910156 35.789062 55.445312 35.070312 C 55.761719 34.65625 55.988281 34.199219 56.125 33.695312 C 56.375 32.667969 56.554688 31.625 56.660156 30.570312 C 56.820312 28.984375 56.867188 27.382812 56.984375 25.785156 C 57.082031 24.460938 57.210938 23.140625 57.335938 21.734375 C 59.109375 21.453125 60.859375 21.039062 62.730469 20.960938 C 62.808594 22.203125 62.945312 23.347656 62.941406 24.488281 C 62.941406 27.328125 62.925781 30.167969 62.816406 33 C 62.714844 34.375 62.539062 35.738281 62.285156 37.089844 Z M 66.652344 44.554688 C 65.9375 44.496094 65.21875 44.53125 64.503906 44.472656 C 63.683594 44.402344 63.5 44.226562 63.382812 43.414062 C 63.238281 42.433594 63.132812 41.441406 63.007812 40.464844 C 63.011719 40.375 63.003906 40.285156 62.976562 40.199219 C 62.597656 39.476562 62.957031 38.832031 63.121094 38.136719 C 63.417969 36.957031 63.628906 35.765625 63.761719 34.554688 C 64.046875 31.15625 64.121094 27.757812 63.980469 24.351562 C 63.925781 24.011719 64.039062 23.746094 64.320312 23.550781 C 64.589844 23.3125 64.839844 23.054688 65.066406 22.777344 C 65.167969 22.675781 65.285156 22.585938 65.449219 22.445312 C 65.410156 23.785156 65.34375 25.039062 65.351562 26.289062 C 65.378906 29.417969 65.421875 32.542969 65.488281 35.671875 C 65.527344 37.316406 65.625 38.957031 65.695312 40.597656 C 65.695312 40.734375 65.695312 40.878906 65.695312 41.003906 C 65.765625 41.847656 66.042969 42.199219 66.867188 42.3125 C 67.6875 42.425781 68.601562 42.46875 69.46875 42.539062 C 69.773438 42.5625 70.074219 42.570312 70.535156 42.589844 C 69.347656 43.667969 68.285156 44.671875 66.652344 44.535156 Z M 89.015625 43.503906 C 88.488281 44.027344 87.941406 44.527344 87.429688 45.066406 C 86.800781 45.746094 86.019531 46.082031 85.09375 46.078125 C 84.109375 46.101562 83.136719 46.152344 82.136719 46.152344 C 79.148438 46.152344 76.171875 46.148438 73.199219 46.136719 C 72.753906 46.136719 72.300781 46.121094 71.855469 46.078125 C 71.230469 46.023438 71.144531 45.9375 71.039062 45.316406 C 70.957031 44.851562 70.886719 44.382812 70.804688 43.847656 C 71.082031 43.613281 71.363281 43.34375 71.675781 43.089844 C 72.367188 42.527344 72.828125 41.871094 72.855469 40.929688 C 72.914062 39.0625 73.019531 37.195312 73.101562 35.328125 C 73.101562 35.191406 73.101562 35.054688 73.101562 34.921875 C 73.082031 34.3125 73.269531 33.78125 73.664062 33.320312 C 74.304688 32.539062 74.910156 31.726562 75.46875 30.882812 C 75.660156 30.578125 75.785156 30.25 75.855469 29.898438 C 75.929688 29.59375 75.734375 29.335938 75.371094 29.300781 C 74.96875 29.261719 74.566406 29.253906 74.164062 29.269531 C 73.921875 29.269531 73.675781 29.300781 73.410156 29.324219 C 73.375 29.234375 73.351562 29.140625 73.339844 29.042969 C 73.367188 27.21875 73.40625 25.382812 73.425781 23.570312 C 73.40625 23.410156 73.4375 23.261719 73.519531 23.125 C 73.601562 22.988281 73.714844 22.886719 73.863281 22.828125 C 74.160156 22.6875 74.421875 22.492188 74.777344 22.285156 C 74.71875 23.351562 74.660156 24.3125 74.617188 25.273438 C 74.601562 25.652344 74.617188 26.039062 74.617188 26.421875 C 74.605469 26.730469 74.695312 27.003906 74.890625 27.242188 C 75.082031 27.480469 75.332031 27.625 75.632812 27.675781 C 76.175781 27.8125 76.726562 27.90625 77.285156 27.957031 C 78.0625 28.039062 78.847656 28.0625 79.628906 28.117188 C 79.820312 28.117188 80.011719 28.175781 80.25 28.207031 C 80.179688 28.34375 80.148438 28.425781 80.101562 28.492188 C 78.5625 30.707031 77.019531 32.914062 75.484375 35.136719 C 74.972656 35.875 74.492188 36.636719 74.058594 37.421875 C 73.914062 37.730469 73.859375 38.054688 73.894531 38.394531 C 73.980469 39.5625 74.113281 40.726562 74.226562 41.890625 C 74.308594 42.699219 74.59375 43 75.40625 43.082031 C 75.941406 43.136719 76.480469 43.160156 77.019531 43.152344 C 79.125 43.132812 81.230469 43.101562 83.335938 43.0625 C 85.128906 43.027344 86.917969 42.972656 88.710938 42.933594 C 88.925781 42.933594 89.136719 42.957031 89.457031 42.972656 C 89.269531 43.222656 89.152344 43.363281 89.015625 43.503906 Z M 90.417969 41.886719 C 85.351562 41.800781 80.375 42.1875 75.339844 42.03125 C 75.257812 41.164062 75.210938 40.34375 75.097656 39.558594 C 74.964844 38.648438 74.933594 37.816406 75.582031 37.023438 C 76.140625 36.335938 76.5625 35.519531 77.078125 34.785156 C 78.582031 32.628906 80.09375 30.476562 81.617188 28.335938 C 82.015625 27.773438 81.929688 27.441406 81.234375 27.292969 C 80.511719 27.160156 79.785156 27.066406 79.054688 27.011719 C 78.117188 26.90625 77.179688 26.835938 76.253906 26.707031 C 75.75 26.636719 75.652344 26.527344 75.671875 26.050781 C 75.722656 24.644531 75.816406 23.234375 75.894531 21.785156 C 76.105469 21.738281 76.320312 21.707031 76.539062 21.6875 C 78.171875 21.6875 79.808594 21.660156 81.441406 21.722656 C 84.4375 21.835938 87.433594 22.003906 90.429688 22.148438 C 90.515625 22.148438 90.597656 22.175781 90.726562 22.195312 C 90.75 22.371094 90.765625 22.546875 90.765625 22.726562 C 90.632812 24.101562 90.519531 25.476562 90.351562 26.828125 C 90.285156 27.210938 90.132812 27.550781 89.890625 27.851562 C 89.015625 28.964844 88.09375 30.039062 87.203125 31.136719 C 86.199219 32.378906 85.207031 33.628906 84.210938 34.875 C 84.15625 34.945312 84.101562 35.015625 84.050781 35.09375 C 83.945312 35.195312 83.878906 35.320312 83.855469 35.46875 C 83.832031 35.617188 83.859375 35.753906 83.929688 35.886719 C 84 36.019531 84.101562 36.113281 84.234375 36.175781 C 84.371094 36.238281 84.511719 36.253906 84.65625 36.21875 C 84.878906 36.199219 85.101562 36.171875 85.324219 36.152344 C 86.726562 36.042969 88.125 35.933594 89.539062 35.832031 C 89.761719 35.8125 89.984375 35.832031 90.316406 35.832031 C 90.460938 37.871094 90.457031 39.839844 90.425781 41.878906 Z M 90.417969 41.886719 " fill-opacity="1" fill-rule="nonzero"/><path fill="#f99d3a" d="M 84.039062 35.09375 C 83.933594 35.195312 83.867188 35.320312 83.84375 35.46875 C 83.824219 35.617188 83.847656 35.753906 83.917969 35.886719 C 83.988281 36.019531 84.089844 36.113281 84.226562 36.175781 C 84.359375 36.238281 84.5 36.253906 84.644531 36.21875 C 84.867188 36.199219 85.089844 36.171875 85.3125 36.152344 C 86.714844 36.042969 88.113281 35.933594 89.527344 35.832031 C 89.75 35.8125 89.972656 35.832031 90.304688 35.832031 C 90.460938 37.875 90.457031 39.84375 90.425781 41.890625 C 85.359375 41.800781 80.382812 42.191406 75.347656 42.035156 C 75.265625 41.164062 75.21875 40.34375 75.105469 39.558594 C 74.972656 38.652344 74.941406 37.820312 75.589844 37.023438 C 76.148438 36.335938 76.570312 35.523438 77.085938 34.789062 C 78.589844 32.632812 80.101562 30.480469 81.625 28.339844 C 82.023438 27.773438 81.9375 27.445312 81.246094 27.296875 C 80.523438 27.164062 79.792969 27.070312 79.0625 27.015625 C 78.128906 26.910156 77.1875 26.839844 76.261719 26.710938 C 75.757812 26.640625 75.660156 26.53125 75.679688 26.054688 C 75.734375 24.644531 75.824219 23.238281 75.902344 21.789062 C 76.117188 21.742188 76.332031 21.707031 76.546875 21.691406 C 78.179688 21.691406 79.816406 21.664062 81.449219 21.726562 C 84.445312 21.835938 87.441406 22.007812 90.4375 22.152344 C 90.523438 22.152344 90.605469 22.179688 90.734375 22.199219 C 90.761719 22.375 90.773438 22.550781 90.773438 22.726562 C 90.632812 24.101562 90.519531 25.476562 90.351562 26.828125 C 90.285156 27.210938 90.132812 27.550781 89.890625 27.851562 C 89.015625 28.964844 88.09375 30.039062 87.203125 31.136719 C 86.199219 32.378906 85.207031 33.628906 84.210938 34.875 C 84.144531 34.945312 84.089844 35.015625 84.039062 35.09375 Z M 84.039062 35.09375 " fill-opacity="1" fill-rule="nonzero"/><path fill="#f99d3a" d="M 72.375 21.582031 C 72.339844 28.265625 72.113281 34.820312 71.746094 41.460938 C 70.09375 41.523438 68.453125 41.445312 66.816406 41.230469 C 66.539062 34.726562 66.109375 28.273438 66.628906 21.796875 C 66.738281 21.753906 66.847656 21.722656 66.960938 21.699219 C 68.433594 21.628906 69.910156 21.554688 71.386719 21.5 C 71.714844 21.507812 72.046875 21.535156 72.375 21.582031 Z M 72.375 21.582031 " fill-opacity="1" fill-rule="nonzero"/><path fill="#f99d3a" d="M 62.925781 24.492188 C 62.925781 27.332031 62.910156 30.171875 62.800781 33.003906 C 62.703125 34.375 62.53125 35.738281 62.285156 37.089844 C 61.988281 39.003906 60.839844 40.234375 59.105469 40.960938 C 57.519531 41.613281 55.875 41.863281 54.167969 41.714844 C 53.230469 41.632812 52.308594 41.460938 51.40625 41.203125 C 49.164062 40.597656 47.863281 39.011719 47.109375 36.910156 C 46.621094 35.542969 46.367188 34.136719 46.351562 32.683594 C 46.324219 30.746094 46.351562 28.808594 46.351562 26.875 C 46.351562 25.320312 46.332031 23.777344 46.324219 22.210938 L 46.324219 21.757812 C 48.390625 21.503906 50.34375 21.796875 52.375 21.941406 C 52.3125 22.605469 52.242188 23.222656 52.1875 23.835938 C 51.996094 26.015625 51.777344 28.1875 51.929688 30.378906 C 51.992188 31.394531 52.179688 32.386719 52.492188 33.359375 C 52.71875 34.054688 53.09375 34.660156 53.613281 35.175781 C 54.242188 35.800781 54.910156 35.789062 55.445312 35.070312 C 55.761719 34.65625 55.988281 34.199219 56.125 33.695312 C 56.375 32.667969 56.554688 31.625 56.660156 30.570312 C 56.820312 28.984375 56.867188 27.382812 56.984375 25.785156 C 57.082031 24.460938 57.210938 23.140625 57.335938 21.734375 C 59.109375 21.453125 60.859375 21.039062 62.730469 20.960938 C 62.792969 22.210938 62.929688 23.351562 62.925781 24.492188 Z M 62.925781 24.492188 " fill-opacity="1" fill-rule="nonzero"/><path fill="#f99d3a" d="M 41.113281 39.277344 C 41.003906 39.207031 40.9375 39.105469 40.914062 38.972656 C 40.886719 38.84375 40.914062 38.726562 40.988281 38.617188 C 41.074219 38.457031 41.183594 38.316406 41.320312 38.195312 C 42.394531 37.214844 42.910156 35.941406 43.242188 34.558594 C 43.738281 32.476562 43.640625 30.40625 43.242188 28.324219 C 42.976562 26.890625 42.355469 25.640625 41.371094 24.570312 C 40.375 23.433594 39.167969 22.59375 37.757812 22.058594 C 36.746094 21.6875 35.722656 21.375 34.675781 21.125 C 33.527344 20.84375 32.371094 20.820312 31.207031 21.054688 C 30.515625 21.238281 29.8125 21.367188 29.101562 21.445312 C 28.445312 21.507812 27.855469 21.738281 27.335938 22.140625 C 25.019531 23.683594 23.339844 25.75 22.292969 28.335938 C 21.808594 29.484375 21.515625 30.683594 21.414062 31.929688 C 21.3125 33.171875 21.40625 34.402344 21.699219 35.617188 C 22.609375 39.277344 25.699219 42.425781 30.328125 43.113281 C 31.667969 43.28125 32.972656 43.136719 34.246094 42.6875 C 34.515625 42.566406 34.792969 42.539062 35.078125 42.609375 C 35.367188 42.675781 35.601562 42.824219 35.789062 43.050781 C 36.714844 44.046875 37.785156 44.855469 38.992188 45.472656 C 40.113281 46.007812 41.234375 45.847656 42.378906 45.542969 C 42.738281 43.703125 43.085938 41.917969 43.449219 40.070312 C 43.003906 39.980469 42.660156 39.890625 42.308594 39.851562 C 41.863281 39.753906 41.46875 39.566406 41.113281 39.277344 Z M 36.726562 33.019531 C 36.636719 33.492188 36.449219 33.925781 36.164062 34.3125 C 35.875 34.695312 35.515625 35 35.085938 35.214844 C 34.167969 35.726562 33.183594 35.980469 32.132812 35.984375 C 29.851562 36.007812 28.296875 34.527344 28.058594 32.113281 C 27.929688 30.855469 28.203125 29.695312 28.878906 28.632812 C 29.277344 28.015625 29.792969 27.527344 30.429688 27.167969 C 31.375 26.601562 32.324219 26.8125 33.277344 27.078125 C 36.265625 27.9375 37.152344 30.449219 36.726562 33.019531 Z M 36.726562 33.019531 " fill-opacity="1" fill-rule="nonzero"/><path fill="#ef3578" d="M 89.472656 42.988281 C 89.269531 43.210938 89.152344 43.363281 89.015625 43.496094 C 88.488281 44.019531 87.941406 44.523438 87.429688 45.058594 C 86.800781 45.738281 86.019531 46.078125 85.09375 46.074219 C 84.109375 46.097656 83.136719 46.144531 82.136719 46.148438 C 79.148438 46.148438 76.171875 46.140625 73.199219 46.128906 C 72.753906 46.128906 72.300781 46.117188 71.855469 46.074219 C 71.230469 46.019531 71.144531 45.929688 71.039062 45.3125 C 70.957031 44.847656 70.886719 44.378906 70.804688 43.839844 C 71.082031 43.605469 71.363281 43.335938 71.675781 43.085938 C 72.367188 42.523438 72.828125 41.863281 72.855469 40.921875 C 72.914062 39.054688 73.019531 37.1875 73.101562 35.320312 C 73.101562 35.183594 73.101562 35.050781 73.101562 34.914062 C 73.082031 34.308594 73.269531 33.773438 73.664062 33.316406 C 74.304688 32.535156 74.910156 31.722656 75.46875 30.878906 C 75.660156 30.574219 75.785156 30.246094 75.855469 29.894531 C 75.929688 29.589844 75.734375 29.328125 75.371094 29.292969 C 74.96875 29.257812 74.566406 29.246094 74.164062 29.261719 C 73.921875 29.261719 73.675781 29.296875 73.410156 29.320312 C 73.375 29.226562 73.351562 29.132812 73.339844 29.035156 C 73.367188 27.214844 73.40625 25.375 73.425781 23.5625 C 73.40625 23.40625 73.4375 23.257812 73.519531 23.117188 C 73.601562 22.980469 73.714844 22.882812 73.863281 22.820312 C 74.160156 22.679688 74.421875 22.488281 74.777344 22.28125 C 74.71875 23.34375 74.660156 24.304688 74.617188 25.269531 C 74.601562 25.648438 74.617188 26.035156 74.617188 26.414062 C 74.605469 26.722656 74.695312 26.996094 74.890625 27.238281 C 75.082031 27.476562 75.332031 27.621094 75.632812 27.671875 C 76.175781 27.804688 76.726562 27.898438 77.285156 27.953125 C 78.0625 28.035156 78.847656 28.058594 79.628906 28.113281 C 79.820312 28.113281 80.011719 28.167969 80.25 28.203125 C 80.179688 28.339844 80.148438 28.421875 80.101562 28.484375 C 78.5625 30.703125 77.019531 32.910156 75.484375 35.132812 C 74.972656 35.871094 74.492188 36.628906 74.058594 37.417969 C 73.914062 37.726562 73.859375 38.050781 73.894531 38.390625 C 73.980469 39.558594 74.113281 40.71875 74.226562 41.886719 C 74.308594 42.695312 74.59375 42.996094 75.40625 43.078125 C 75.941406 43.128906 76.480469 43.152344 77.019531 43.148438 C 79.125 43.125 81.230469 43.09375 83.335938 43.054688 C 85.128906 43.019531 86.917969 42.96875 88.710938 42.929688 C 88.953125 42.941406 89.152344 42.96875 89.472656 42.988281 Z M 89.472656 42.988281 " fill-opacity="1" fill-rule="nonzero"/><path fill="#ef3578" d="M 70.546875 42.585938 C 69.332031 43.667969 68.285156 44.671875 66.652344 44.535156 C 65.9375 44.476562 65.21875 44.515625 64.503906 44.453125 C 63.683594 44.382812 63.5 44.210938 63.382812 43.394531 C 63.238281 42.414062 63.132812 41.425781 63.007812 40.449219 C 63.011719 40.359375 63.003906 40.269531 62.976562 40.183594 C 62.597656 39.460938 62.957031 38.8125 63.121094 38.121094 C 63.417969 36.941406 63.628906 35.746094 63.761719 34.539062 C 64.046875 31.144531 64.121094 27.75 63.980469 24.351562 C 63.925781 24.011719 64.039062 23.746094 64.320312 23.550781 C 64.589844 23.3125 64.839844 23.054688 65.066406 22.777344 C 65.167969 22.675781 65.285156 22.585938 65.449219 22.445312 C 65.410156 23.785156 65.34375 25.039062 65.351562 26.289062 C 65.378906 29.417969 65.421875 32.542969 65.488281 35.671875 C 65.527344 37.316406 65.625 38.957031 65.695312 40.597656 C 65.695312 40.734375 65.695312 40.878906 65.695312 41.003906 C 65.765625 41.847656 66.042969 42.199219 66.867188 42.3125 C 67.6875 42.425781 68.601562 42.46875 69.46875 42.539062 C 69.785156 42.558594 70.085938 42.566406 70.546875 42.585938 Z M 70.546875 42.585938 " fill-opacity="1" fill-rule="nonzero"/><path fill="#ef3578" d="M 59.722656 41.9375 C 59.191406 42.394531 58.59375 42.738281 57.929688 42.96875 C 54.726562 44.070312 51.488281 44.285156 48.234375 43.234375 C 47.476562 42.964844 46.75 42.621094 46.0625 42.203125 C 45.355469 41.804688 44.941406 41.121094 44.59375 40.40625 C 44.550781 40.28125 44.539062 40.148438 44.546875 40.015625 C 44.527344 39.277344 44.339844 39.070312 43.617188 38.953125 C 43.28125 38.902344 42.957031 38.84375 42.625 38.785156 C 42.566406 38.769531 42.511719 38.746094 42.460938 38.714844 C 42.460938 38.65625 42.460938 38.597656 42.476562 38.570312 C 43.875 37.023438 44.308594 35.105469 44.574219 33.117188 C 44.78125 31.261719 44.652344 29.433594 44.179688 27.625 C 43.976562 26.761719 43.582031 25.9375 43.242188 25.015625 L 45.183594 22.59375 C 45.21875 22.789062 45.242188 22.984375 45.257812 23.179688 C 45.257812 26.15625 45.257812 29.128906 45.257812 32.101562 C 45.25 33.691406 45.476562 35.242188 45.9375 36.761719 C 46.15625 37.472656 46.445312 38.152344 46.804688 38.804688 C 47.976562 40.96875 49.898438 42.09375 52.261719 42.566406 C 54.667969 43.070312 57.027344 42.894531 59.335938 42.046875 C 59.40625 42.019531 59.492188 42 59.722656 41.9375 Z M 59.722656 41.9375 " fill-opacity="1" fill-rule="nonzero"/><path fill="#ef3578" d="M 42.484375 46.882812 C 42.363281 48.058594 42.363281 48.089844 41.199219 48.292969 C 39.363281 48.574219 37.636719 48.261719 36.019531 47.347656 C 35.523438 47.082031 35.058594 46.777344 34.617188 46.433594 C 33.945312 45.90625 33.1875 45.710938 32.347656 45.855469 C 31.460938 45.980469 30.566406 46.027344 29.675781 46.136719 C 27.109375 46.417969 24.816406 45.644531 22.671875 44.3125 C 19.871094 42.59375 18.550781 39.957031 18.109375 36.804688 C 17.6875 33.761719 18.234375 30.84375 19.449219 28.039062 C 19.996094 26.792969 20.746094 25.675781 21.6875 24.695312 C 22.5625 23.820312 23.582031 23.183594 24.753906 22.792969 C 23.710938 23.859375 22.8125 25.035156 22.058594 26.320312 C 20.339844 29.308594 20.035156 32.519531 20.632812 35.859375 C 20.753906 36.464844 20.957031 37.039062 21.234375 37.589844 C 23.164062 41.53125 26.359375 43.730469 30.695312 44.253906 C 31.882812 44.394531 33.058594 44.140625 34.214844 43.847656 C 34.40625 43.796875 34.597656 43.734375 34.773438 43.679688 C 35.425781 44.222656 36.046875 44.773438 36.703125 45.273438 C 37.199219 45.65625 37.71875 46.003906 38.257812 46.320312 C 39.28125 46.886719 40.363281 47.058594 41.511719 46.839844 L 42.402344 46.703125 C 42.460938 46.796875 42.488281 46.835938 42.484375 46.882812 Z M 42.484375 46.882812 " fill-opacity="1" fill-rule="nonzero"/><path fill="#000a44" d="M 33.277344 27.085938 C 32.324219 26.804688 31.375 26.605469 30.429688 27.175781 C 29.792969 27.53125 29.277344 28.015625 28.878906 28.632812 C 28.203125 29.695312 27.929688 30.855469 28.058594 32.113281 C 28.296875 34.527344 29.851562 36.007812 32.132812 35.984375 C 33.183594 35.980469 34.167969 35.726562 35.085938 35.214844 C 35.515625 35 35.875 34.695312 36.164062 34.3125 C 36.449219 33.925781 36.636719 33.492188 36.726562 33.019531 C 37.152344 30.449219 36.265625 27.9375 33.277344 27.085938 Z M 29.816406 33.882812 C 29.277344 33.277344 29.148438 32.503906 29.121094 31.71875 C 29.074219 31.101562 29.167969 30.507812 29.402344 29.9375 C 29.632812 29.367188 29.980469 28.878906 30.441406 28.472656 C 31.019531 27.957031 31.339844 27.976562 31.839844 28.582031 C 32.402344 29.273438 32.660156 30.0625 32.613281 30.953125 C 32.585938 32.070312 31.167969 34.015625 29.816406 33.882812 Z M 35.699219 32.664062 C 35.609375 33.089844 35.425781 33.464844 35.136719 33.792969 C 34.058594 34.820312 32.734375 35.03125 31.28125 34.765625 C 32.320312 33.996094 33.15625 33.074219 33.539062 31.84375 C 33.921875 30.609375 33.558594 29.375 32.929688 28.117188 C 34.195312 28.539062 35.109375 29.128906 35.488281 30.347656 C 35.722656 31.109375 35.90625 31.878906 35.691406 32.664062 Z M 35.699219 32.664062 " fill-opacity="1" fill-rule="nonzero"/><path fill="#ef3578" d="M 35.691406 32.664062 C 35.601562 33.089844 35.417969 33.464844 35.128906 33.792969 C 34.050781 34.820312 32.726562 35.03125 31.273438 34.765625 C 32.3125 33.996094 33.148438 33.074219 33.53125 31.84375 C 33.914062 30.609375 33.550781 29.375 32.921875 28.117188 C 34.1875 28.539062 35.101562 29.128906 35.480469 30.347656 C 35.722656 31.109375 35.90625 31.878906 35.691406 32.664062 Z M 35.691406 32.664062 " fill-opacity="1" fill-rule="nonzero"/></svg>